<svg width="24" height="24" viewBox="0 0 24 24" fill="none" xmlns="http://www.w3.org/2000/svg">
<mask id="mask0_2034_66" style="mask-type:luminance" maskUnits="userSpaceOnUse" x="0" y="0" width="24" height="24">
<path d="M1.19922 9.59993C1.19922 7.33673 1.19922 6.20633 1.90242 5.50313C2.60562 4.79993 3.73602 4.79993 5.99922 4.79993H17.9992C20.2624 4.79993 21.3928 4.79993 22.096 5.50313C22.7992 6.20633 22.7992 7.33673 22.7992 9.59993V10.7999H1.19922V9.59993Z" stroke="#C0C0C0" stroke-opacity="0.25" stroke-width="2"/>
<path d="M20.3992 4.79993H3.59922C2.27374 4.79993 1.19922 5.87444 1.19922 7.19993V20.3999C1.19922 21.7254 2.27374 22.7999 3.59922 22.7999H20.3992C21.7247 22.7999 22.7992 21.7254 22.7992 20.3999V7.19993C22.7992 5.87444 21.7247 4.79993 20.3992 4.79993Z" stroke="white" stroke-width="2"/>
<path d="M6 1.19995V7.19995M18 1.19995V7.19995" stroke="white" stroke-width="2" stroke-linecap="round"/>
</mask>
<g mask="url(#mask0_2034_66)">
<path d="M-2.40039 -2.40002H26.3996V26.4H-2.40039V-2.40002Z" fill="#EAB86D"/>
</g>
</svg>
