<svg width="1088" height="1053" viewBox="0 0 1088 1053" fill="none" xmlns="http://www.w3.org/2000/svg">
<path d="M546.867 376.364C560.06 375.902 572.159 380.464 583.919 386.757C589.799 389.904 595.582 393.476 601.372 397.062C607.158 400.645 612.953 404.243 618.833 407.423C624.777 410.638 630.986 413.572 637.171 416.511C643.361 419.453 649.528 422.401 655.409 425.654C667.172 432.16 677.752 439.863 685.021 451.092C699.713 473.787 699.895 502.798 698.216 529.982C696.626 555.713 686.818 579.364 675.596 602.669C669.678 614.959 664.529 628.255 657.856 640.191C651.199 652.1 643.081 662.535 631.322 669.027C619.608 675.494 606.531 676.59 592.977 675.751C586.2 675.332 579.318 674.43 572.436 673.48C565.56 672.531 558.68 671.533 551.936 670.928C527.524 668.74 504.279 664.134 481.35 655.516C468.219 650.581 454.304 646.554 441.482 640.946C428.69 635.35 417.107 628.223 408.745 617.172C391.619 594.539 386.33 563.551 390.35 535.37C392.25 522.049 398.306 510.355 405.869 499.207C409.651 493.634 413.805 488.204 417.998 482.778C422.189 477.355 426.421 471.934 430.347 466.392C444.449 446.485 458.318 427.187 477.545 412.346C488.089 404.208 498.818 395.445 510.236 388.59C521.647 381.74 533.702 376.825 546.867 376.364Z" stroke="#EAB86D" stroke-opacity="0.3"/>
<path d="M549.249 251.539C573.58 250.687 595.87 259.096 617.489 270.657C628.299 276.437 638.928 282.999 649.559 289.578C660.184 296.154 670.811 302.748 681.595 308.576C692.497 314.468 703.887 319.845 715.246 325.239C726.61 330.635 737.943 336.049 748.755 342.025C770.378 353.976 789.872 368.15 803.273 388.836C830.331 430.603 830.65 483.96 827.566 533.832C824.642 581.128 806.601 624.583 785.993 667.349C775.149 689.852 765.668 714.306 753.412 736.214C741.171 758.096 726.218 777.319 704.53 789.284C682.921 801.205 658.817 803.213 633.896 801.672C621.437 800.902 608.787 799.246 596.151 797.502C583.522 795.76 570.902 793.931 558.531 792.823C513.681 788.805 470.963 780.348 428.821 764.52C404.76 755.483 379.15 748.072 355.602 737.779C332.082 727.498 310.743 714.385 295.329 694.03C263.802 652.394 254.08 595.419 261.473 543.632C264.974 519.102 276.133 497.585 290.036 477.108C296.988 466.869 304.62 456.898 312.319 446.943C320.016 436.991 327.781 427.053 334.982 416.894C360.872 380.376 386.368 344.916 421.727 317.643C441.072 302.722 460.799 286.622 481.791 274.03C502.775 261.442 524.98 252.388 549.249 251.539Z" stroke="#EAB86D" stroke-opacity="0.3"/>
<path d="M551.608 127.986C586.969 126.75 619.35 138.966 650.731 155.741C666.422 164.129 681.851 173.649 697.273 183.191C712.692 192.729 728.104 202.288 743.743 210.737C759.555 219.28 776.076 227.075 792.558 234.9C809.044 242.726 825.493 250.582 841.187 259.252C872.574 276.593 900.895 297.172 920.368 327.22C959.67 387.864 960.123 465.32 955.649 537.649C951.404 606.292 925.212 669.351 895.311 731.38C879.589 763.992 865.817 799.49 848.032 831.27C830.262 863.023 808.541 890.944 777.021 908.325C745.614 925.645 710.592 928.558 674.417 926.321C656.33 925.203 637.969 922.8 619.636 920.272C601.309 917.744 583.006 915.092 565.064 913.485C499.976 907.657 437.976 895.388 376.81 872.423C341.926 859.326 304.733 848.567 270.563 833.636C236.423 818.718 205.422 799.679 183.025 770.113C137.238 709.668 123.129 626.969 133.86 551.818C138.948 516.192 155.158 484.951 175.339 455.239C185.429 440.384 196.508 425.918 207.679 411.479C218.847 397.044 230.109 382.633 240.555 367.904C278.115 314.944 315.124 263.487 366.457 223.908C394.517 202.273 423.155 178.912 453.626 160.64C484.09 142.372 516.344 129.22 551.608 127.986Z" stroke="#EAB86D" stroke-opacity="0.3"/>
<path d="M553.99 0.613281C600.488 -1.01481 643.061 15.0669 684.302 37.1367C704.922 48.1715 725.196 60.6961 745.459 73.2451C765.717 85.7913 785.963 98.3624 806.506 109.473C827.276 120.706 848.977 130.958 870.633 141.25C892.293 151.544 913.909 161.877 934.532 173.284C975.78 196.098 1013.02 223.18 1038.62 262.733C1090.29 342.546 1090.88 444.473 1085 539.604C1079.42 629.922 1045 712.886 1005.71 794.475C985.061 837.352 966.956 884.064 943.587 925.866C920.232 967.643 891.677 1004.4 850.229 1027.28C808.927 1050.08 762.879 1053.91 715.338 1050.97C691.568 1049.5 667.438 1046.33 643.352 1043.01C619.271 1039.68 595.229 1036.2 571.66 1034.08C486.133 1026.42 404.66 1010.28 324.281 980.065C278.468 962.846 229.58 948.685 184.684 929.046C139.816 909.419 99.0578 884.366 69.6094 845.447C9.41996 765.903 -9.12092 657.084 4.9834 558.207C11.6723 511.315 32.9848 470.202 59.5059 431.113C72.7664 411.569 87.3232 392.539 102 373.548C116.674 354.56 131.469 335.61 145.191 316.24C194.538 246.585 243.175 178.884 310.64 126.811C347.501 98.3585 385.136 67.6229 425.181 43.584C465.218 19.5495 507.621 2.23687 553.99 0.613281Z" stroke="#EAB86D" stroke-opacity="0.3"/>
</svg>
