<svg width="24" height="24" viewBox="0 0 24 24" fill="none" xmlns="http://www.w3.org/2000/svg">
<g clip-path="url(#clip0_2025_10)">
<path d="M13.3046 1.16837C13.3046 1.16837 13.0515 5.09455 15.7788 9.81928C18.5061 14.544 22.033 16.2862 22.033 16.2862M1.9668 7.71382C1.9668 7.71382 5.49371 9.45818 8.22098 14.1829C10.9483 18.9076 10.6952 22.8316 10.6952 22.8316" stroke="#EAB86D" stroke-width="1.5"/>
<path d="M6.54537 2.55055C8.20295 1.59134 10.0848 1.08775 11.9999 1.09091C18.025 1.09091 22.909 5.97491 22.909 12C22.909 18.0251 18.025 22.9091 11.9999 22.9091C5.97482 22.9091 1.09082 18.0251 1.09082 12C1.09082 10.0135 1.62209 8.14909 2.55046 6.54546" stroke="#EAB86D" stroke-width="1.5" stroke-linecap="round"/>
</g>
<defs>
<clipPath id="clip0_2025_10">
<rect width="24" height="24" fill="white"/>
</clipPath>
</defs>
</svg>
